<?xml version="1.0" encoding="utf-8"?>
<!-- Generator: Adobe Illustrator 13.0.2, SVG Export Plug-In . SVG Version: 6.00 Build 14948)  -->
<!DOCTYPE svg PUBLIC "-//W3C//DTD SVG 1.1//EN" "http://www.w3.org/Graphics/SVG/1.1/DTD/svg11.dtd">
<svg version="1.1" xmlns="http://www.w3.org/2000/svg" xmlns:xlink="http://www.w3.org/1999/xlink" x="0px" y="0px"
	 width="205.59px" height="323.73px" viewBox="0 0 205.59 323.73" enable-background="new 0 0 205.59 323.73" xml:space="preserve">
<g id="Background">
</g>
<g id="Guides">
</g>
<g id="Foreground">
	<g>
		<g>
			<g>
				<g id="XMLID_1_">
					<g>
						<polygon points="55.655,312.175 146.635,312.505 146.755,312.625 146.635,312.745 55.655,312.405 55.545,312.295 						"/>
						<polygon points="55.545,312.295 55.655,312.405 55.425,312.405 						"/>
						<polygon points="135.575,301.445 66.595,301.445 55.665,290.495 146.655,290.825 135.915,301.575 135.705,301.575 						"/>
						<polygon points="66.725,323.485 55.655,312.405 146.635,312.745 135.915,323.485 						"/>
						<polygon points="55.425,290.495 55.545,290.375 55.665,290.495 						"/>
						<polygon points="66.605,279.535 135.575,279.535 135.695,279.655 66.725,279.655 						"/>
						<polygon points="55.655,312.175 55.545,312.295 55.425,312.175 						"/>
						<polygon points="66.725,279.655 135.695,279.655 146.655,290.605 55.665,290.255 66.395,279.535 66.605,279.535 						"/>
						<polygon points="66.605,279.535 55.425,268.355 59.605,268.365 59.605,268.525 104.005,268.525 146.875,268.675 
							135.915,279.655 135.695,279.655 135.575,279.535 						"/>
						<polygon points="146.875,312.505 146.755,312.625 146.635,312.505 						"/>
						<polygon points="66.725,301.575 135.705,301.575 146.635,312.505 55.655,312.175 66.395,301.445 66.595,301.445 						"/>
						<path d="M59.605,232.445c-2.76-14.74-5.81-23.07-13.22-36.09c-3.7-6.5-6.89-11.38-10.62-15.95
							c17.98,15.53,41.41,24.93,67.03,24.93c27.23,0,51.98-10.61,70.34-27.93c-3.92,4.47-7.19,8.97-11.26,15.25
							c-9.21,14.23-13.25,23.38-17.52,39.79v36.08h-40.35l-44.4-0.16V232.445z"/>
						<polygon points="146.875,290.825 146.655,290.825 146.765,290.715 						"/>
						<path d="M102.795,205.335c-25.62,0-49.05-9.4-67.03-24.93c-0.01-0.01-0.01-0.01-0.01-0.01c-3.3-4.04-7.01-7.83-11.87-12.28
							h157.96c-0.47,0.57-0.95,1.14-1.44,1.7c-2.78,2.71-5.12,5.14-7.27,7.59C154.775,194.725,130.025,205.335,102.795,205.335z"/>
						<path d="M181.845,168.115h0.33c-0.61,0.58-1.2,1.15-1.77,1.7C180.895,169.255,181.375,168.685,181.845,168.115z"/>
						<polygon points="66.595,301.445 135.575,301.445 135.705,301.575 66.725,301.575 						"/>
						<path d="M180.405,169.815c-2.29,2.65-4.72,5.18-7.27,7.59C175.285,174.955,177.625,172.525,180.405,169.815z"/>
						<polygon points="146.875,290.605 146.765,290.715 146.655,290.605 						"/>
						<polygon points="59.605,268.525 59.605,268.365 104.005,268.525 						"/>
						<polygon points="146.875,312.745 146.635,312.745 146.755,312.625 						"/>
						<polygon points="55.665,290.255 146.655,290.605 146.765,290.715 146.655,290.825 55.665,290.495 55.545,290.375 						"/>
						<path d="M23.885,168.115c4.86,4.45,8.57,8.24,11.87,12.28c-21.74-18.81-35.5-46.6-35.5-77.61
							c0-56.63,45.91-102.54,102.54-102.54s102.54,45.91,102.54,102.54c0,24.82-8.82,47.59-23.49,65.33H23.885z"/>
						<polygon points="55.665,290.255 55.545,290.375 55.425,290.255 						"/>
					</g>
					<g>
					</g>
				</g>
			</g>
		</g>
	</g>
</g>
</svg>
