<?xml version="1.0" encoding="utf-8"?>
<!-- Generator: Adobe Illustrator 13.0.2, SVG Export Plug-In . SVG Version: 6.00 Build 14948)  -->
<!DOCTYPE svg PUBLIC "-//W3C//DTD SVG 1.1//EN" "http://www.w3.org/Graphics/SVG/1.1/DTD/svg11.dtd">
<svg version="1.1" xmlns="http://www.w3.org/2000/svg" xmlns:xlink="http://www.w3.org/1999/xlink" x="0px" y="0px"
	 width="258.209px" height="317.136px" viewBox="0 0 258.209 317.136" enable-background="new 0 0 258.209 317.136"
	 xml:space="preserve">
<g id="Background">
</g>
<g id="Guides">
</g>
<g id="Foreground">
	<g>
		<path fill-rule="evenodd" clip-rule="evenodd" d="M257.661,316.595l-0.241-20.772c-1.359,0.124-3.5,0-3.5,0
			c-9.666,0-17.501-8.469-17.501-18.907s7.836-18.9,17.501-18.9c0,0,2.141-0.18,3.5-0.055v-20.969c-1.359,0.124-3.5,0-3.5,0
			c-9.666,0-17.501-8.469-17.501-18.907s7.836-18.9,17.501-18.9c0,0,2.141-0.179,3.5-0.055V178.16c-1.359,0.124-3.5,0-3.5,0
			c-9.666,0-17.501-8.468-17.501-18.907s7.836-18.9,17.501-18.9c0,0,2.141-0.179,3.5-0.055v-20.969c-1.359,0.124-3.5,0-3.5,0
			c-9.666,0-17.501-8.468-17.501-18.907s7.836-18.9,17.501-18.9c0,0,2.141-0.179,3.5-0.055V60.498c-1.359,0.124-3.5,0-3.5,0
			c-9.666,0-17.501-8.468-17.501-18.907s7.836-18.9,17.501-18.9c0,0,2.141-0.124,3.5,0l0.283-22.189l-20.99,0.072
			c0.124,1.36-0.055,3.5-0.055,3.5c0,9.666-8.462,17.501-18.9,17.501s-18.907-7.835-18.907-17.501c0,0-0.125-2.141,0-3.5h-20.969
			c0.124,1.36-0.055,3.5-0.055,3.5c0,9.666-8.462,17.501-18.9,17.501s-18.907-7.835-18.907-17.501c0,0-0.124-2.141,0-3.5H119.05
			c0.125,1.36-0.055,3.5-0.055,3.5c0,9.666-8.462,17.501-18.9,17.501c-10.439,0-18.907-7.835-18.907-17.501c0,0-0.124-2.141,0-3.5
			H60.219c0.124,1.36-0.055,3.5-0.055,3.5c0,9.666-8.461,17.501-18.9,17.501c-10.438,0-18.907-7.835-18.907-17.501
			c0,0-0.124-2.141,0-3.5H1.388l0.23,20.813c1.359-0.124,3.5,0,3.5,0c9.666,0,17.501,8.468,17.501,18.907s-7.835,18.9-17.501,18.9
			c0,0-2.141,0.179-3.5,0.055v20.969c1.359-0.124,3.5,0,3.5,0c9.666,0,17.501,8.468,17.501,18.907s-7.835,18.9-17.501,18.9
			c0,0-2.141,0.179-3.5,0.055v20.969c1.359-0.124,3.5,0,3.5,0c9.666,0,17.501,8.468,17.501,18.907c0,10.438-7.835,18.9-17.501,18.9
			c0,0-2.141,0.179-3.5,0.055v20.969c1.359-0.124,3.5,0,3.5,0c9.666,0,17.501,8.469,17.501,18.907s-7.835,18.9-17.501,18.9
			c0,0-2.141,0.179-3.5,0.055v20.969c1.359-0.125,3.5,0,3.5,0c9.666,0,17.501,8.468,17.501,18.907s-7.835,18.9-17.501,18.9
			c0,0-2.141,0.124-3.5,0l-1.093,22.117h20.969c-0.124-1.359,0.055-3.5,0.055-3.5c0-9.666,8.461-17.501,18.9-17.501
			c10.438,0,18.907,7.835,18.907,17.501c0,0,0.124,2.141,0,3.5h20.969c-0.124-1.359,0.055-3.5,0.055-3.5
			c0-9.666,8.462-17.501,18.9-17.501s18.907,7.835,18.907,17.501c0,0,0.124,2.141,0,3.5h20.969c-0.124-1.359,0.055-3.5,0.055-3.5
			c0-9.666,8.462-17.501,18.9-17.501s18.907,7.835,18.907,17.501c0,0,0.124,2.141,0,3.5h20.969c-0.124-1.359,0.055-3.5,0.055-3.5
			c0-9.666,8.462-17.501,18.9-17.501s18.907,7.835,18.907,17.501c0,0,0.125,2.141,0,3.5L257.661,316.595z"/>
		<path fill-rule="evenodd" clip-rule="evenodd" fill="none" stroke="#000000" stroke-miterlimit="3.8637" d="M257.661,316.595
			l-0.241-20.772c-1.359,0.124-3.5,0-3.5,0c-9.666,0-17.501-8.469-17.501-18.907s7.836-18.9,17.501-18.9c0,0,2.141-0.18,3.5-0.055
			v-20.969c-1.359,0.124-3.5,0-3.5,0c-9.666,0-17.501-8.469-17.501-18.907s7.836-18.9,17.501-18.9c0,0,2.141-0.179,3.5-0.055V178.16
			c-1.359,0.124-3.5,0-3.5,0c-9.666,0-17.501-8.468-17.501-18.907s7.836-18.9,17.501-18.9c0,0,2.141-0.179,3.5-0.055v-20.969
			c-1.359,0.124-3.5,0-3.5,0c-9.666,0-17.501-8.468-17.501-18.907s7.836-18.9,17.501-18.9c0,0,2.141-0.179,3.5-0.055V60.498
			c-1.359,0.124-3.5,0-3.5,0c-9.666,0-17.501-8.468-17.501-18.907s7.836-18.9,17.501-18.9c0,0,2.141-0.124,3.5,0l0.283-22.189
			l-20.99,0.072c0.124,1.36-0.055,3.5-0.055,3.5c0,9.666-8.462,17.501-18.9,17.501s-18.907-7.835-18.907-17.501
			c0,0-0.125-2.141,0-3.5h-20.969c0.124,1.36-0.055,3.5-0.055,3.5c0,9.666-8.462,17.501-18.9,17.501s-18.907-7.835-18.907-17.501
			c0,0-0.124-2.141,0-3.5H119.05c0.125,1.36-0.055,3.5-0.055,3.5c0,9.666-8.462,17.501-18.9,17.501
			c-10.439,0-18.907-7.835-18.907-17.501c0,0-0.124-2.141,0-3.5H60.219c0.124,1.36-0.055,3.5-0.055,3.5
			c0,9.666-8.461,17.501-18.9,17.501c-10.438,0-18.907-7.835-18.907-17.501c0,0-0.124-2.141,0-3.5H1.388l0.23,20.813
			c1.359-0.124,3.5,0,3.5,0c9.666,0,17.501,8.468,17.501,18.907s-7.835,18.9-17.501,18.9c0,0-2.141,0.179-3.5,0.055v20.969
			c1.359-0.124,3.5,0,3.5,0c9.666,0,17.501,8.468,17.501,18.907s-7.835,18.9-17.501,18.9c0,0-2.141,0.179-3.5,0.055v20.969
			c1.359-0.124,3.5,0,3.5,0c9.666,0,17.501,8.468,17.501,18.907c0,10.438-7.835,18.9-17.501,18.9c0,0-2.141,0.179-3.5,0.055v20.969
			c1.359-0.124,3.5,0,3.5,0c9.666,0,17.501,8.469,17.501,18.907s-7.835,18.9-17.501,18.9c0,0-2.141,0.179-3.5,0.055v20.969
			c1.359-0.125,3.5,0,3.5,0c9.666,0,17.501,8.468,17.501,18.907s-7.835,18.9-17.501,18.9c0,0-2.141,0.124-3.5,0l-1.093,22.117
			h20.969c-0.124-1.359,0.055-3.5,0.055-3.5c0-9.666,8.461-17.501,18.9-17.501c10.438,0,18.907,7.835,18.907,17.501
			c0,0,0.124,2.141,0,3.5h20.969c-0.124-1.359,0.055-3.5,0.055-3.5c0-9.666,8.462-17.501,18.9-17.501s18.907,7.835,18.907,17.501
			c0,0,0.124,2.141,0,3.5h20.969c-0.124-1.359,0.055-3.5,0.055-3.5c0-9.666,8.462-17.501,18.9-17.501s18.907,7.835,18.907,17.501
			c0,0,0.124,2.141,0,3.5h20.969c-0.124-1.359,0.055-3.5,0.055-3.5c0-9.666,8.462-17.501,18.9-17.501s18.907,7.835,18.907,17.501
			c0,0,0.125,2.141,0,3.5L257.661,316.595z"/>
	</g>
</g>
</svg>
