<?xml version="1.0" encoding="utf-8"?>
<!-- Generator: Adobe Illustrator 13.0.2, SVG Export Plug-In . SVG Version: 6.00 Build 14948)  -->
<!DOCTYPE svg PUBLIC "-//W3C//DTD SVG 1.1//EN" "http://www.w3.org/Graphics/SVG/1.1/DTD/svg11.dtd">
<svg version="1.1" xmlns="http://www.w3.org/2000/svg" xmlns:xlink="http://www.w3.org/1999/xlink" x="0px" y="0px"
	 width="315.987px" height="316.218px" viewBox="0 0 315.987 316.218" enable-background="new 0 0 315.987 316.218"
	 xml:space="preserve">
<g id="Background">
</g>
<g id="Guides">
</g>
<g id="Foreground">
	<g>
		<path fill-rule="evenodd" clip-rule="evenodd" d="M315.12,316.218l-0.225-20.969c-1.36,0.124-3.5,0-3.5,0
			c-9.666,0-17.501-8.469-17.501-18.907s7.836-18.9,17.501-18.9c0,0,2.141-0.18,3.5-0.055v-20.969c-1.36,0.124-3.5,0-3.5,0
			c-9.666,0-17.501-8.469-17.501-18.907s7.836-18.9,17.501-18.9c0,0,2.141-0.179,3.5-0.055v-20.969c-1.36,0.124-3.5,0-3.5,0
			c-9.666,0-17.501-8.468-17.501-18.907s7.836-18.9,17.501-18.9c0,0,2.141-0.179,3.5-0.055v-20.969c-1.36,0.124-3.5,0-3.5,0
			c-9.666,0-17.501-8.468-17.501-18.907s7.836-18.9,17.501-18.9c0,0,2.141-0.179,3.5-0.055V59.924c-1.36,0.124-3.5,0-3.5,0
			c-9.666,0-17.501-8.468-17.501-18.907s7.836-18.9,17.501-18.9c0,0,2.141-0.124,3.5,0L315.987,0h-20.969
			c0.124,1.36-0.055,3.5-0.055,3.5c0,9.666-8.462,17.501-18.9,17.501S257.156,13.167,257.156,3.5c0,0-0.124-2.141,0-3.5h-20.969
			c0.124,1.36-0.055,3.5-0.055,3.5c0,9.666-8.462,17.501-18.9,17.501S198.325,13.167,198.325,3.5c0,0-0.125-2.141,0-3.5h-20.969
			c0.124,1.36-0.055,3.5-0.055,3.5c0,9.666-8.462,17.501-18.9,17.501S139.494,13.167,139.494,3.5c0,0-0.124-2.141,0-3.5h-20.969
			c0.125,1.36-0.055,3.5-0.055,3.5c0,9.666-8.462,17.501-18.9,17.501c-10.439,0-18.907-7.835-18.907-17.501c0,0-0.124-2.141,0-3.5
			H59.694c0.124,1.36-0.055,3.5-0.055,3.5c0,9.666-8.461,17.501-18.9,17.501c-10.438,0-18.907-7.835-18.907-17.501
			c0,0-0.124-2.141,0-3.5H0.863l0.23,20.813c1.359-0.124,3.5,0,3.5,0c9.666,0,17.501,8.468,17.501,18.907s-7.835,18.9-17.501,18.9
			c0,0-2.141,0.179-3.5,0.055v20.969c1.359-0.124,3.5,0,3.5,0c9.666,0,17.501,8.468,17.501,18.907s-7.835,18.9-17.501,18.9
			c0,0-2.141,0.179-3.5,0.055v20.969c1.359-0.124,3.5,0,3.5,0c9.666,0,17.501,8.468,17.501,18.907c0,10.438-7.835,18.9-17.501,18.9
			c0,0-2.141,0.179-3.5,0.055v20.969c1.359-0.124,3.5,0,3.5,0c9.666,0,17.501,8.469,17.501,18.907s-7.835,18.9-17.501,18.9
			c0,0-2.141,0.179-3.5,0.055v20.969c1.359-0.124,3.5,0,3.5,0c9.666,0,17.501,8.468,17.501,18.907s-7.835,18.9-17.501,18.9
			c0,0-2.141,0.124-3.5,0L0,316.062h20.969c-0.124-1.359,0.055-3.5,0.055-3.5c0-9.666,8.461-17.501,18.9-17.501
			c10.438,0,18.907,7.835,18.907,17.501c0,0,0.124,2.141,0,3.5H79.8c-0.124-1.359,0.055-3.5,0.055-3.5
			c0-9.666,8.462-17.501,18.9-17.501s18.907,7.835,18.907,17.501c0,0,0.124,2.141,0,3.5h20.969c-0.124-1.359,0.055-3.5,0.055-3.5
			c0-9.666,8.462-17.501,18.9-17.501s18.907,7.835,18.907,17.501c0,0,0.124,2.141,0,3.5h20.969c-0.124-1.359,0.055-3.5,0.055-3.5
			c0-9.666,8.462-17.501,18.9-17.501s18.907,7.835,18.907,17.501c0,0,0.125,2.141,0,3.5h20.969c-0.124-1.359,0.055-3.5,0.055-3.5
			c0-9.666,8.462-17.501,18.9-17.501s18.907,7.835,18.907,17.501c0,0,0.124,2.141,0,3.5L315.12,316.218z"/>
	</g>
</g>
</svg>
