<?xml version="1.0" encoding="utf-8"?>
<!-- Generator: Adobe Illustrator 15.0.2, SVG Export Plug-In . SVG Version: 6.00 Build 0)  -->
<!DOCTYPE svg PUBLIC "-//W3C//DTD SVG 1.1//EN" "http://www.w3.org/Graphics/SVG/1.1/DTD/svg11.dtd">
<svg version="1.1" id="Layer_1" xmlns="http://www.w3.org/2000/svg" xmlns:xlink="http://www.w3.org/1999/xlink" x="0px" y="0px"
	 width="258.209px" height="317.136px" viewBox="0 0 258.209 317.136" enable-background="new 0 0 258.209 317.136"
	 xml:space="preserve">
<g id="Background">
</g>
<g id="Guides">
</g>
<g id="Foreground">
	<g>
		<path d="M254.164,295.828c-9.67,0-17.5-8.47-17.5-18.91c0-10.439,7.841-18.899,17.5-18.899c0,0,2.141-0.181,3.5-0.061v-20.97
			c-1.359,0.13-3.5,0-3.5,0c-9.67,0-17.5-8.46-17.5-18.9c0-10.439,7.841-18.899,17.5-18.899c0,0,2.141-0.18,3.5-0.061v-20.97
			c-1.359,0.13-3.5,0-3.5,0c-9.67,0-17.5-8.47-17.5-18.899c0-10.44,7.841-18.9,17.5-18.9c0,0,2.141-0.18,3.5-0.06v-20.97
			c-1.359,0.13-3.5,0-3.5,0c-9.67,0-17.5-8.47-17.5-18.91c0-10.43,7.841-18.9,17.5-18.9c0,0,2.141-0.18,3.5-0.05v-20.97
			c-1.359,0.12-3.5,0-3.5,0c-9.67,0-17.5-8.47-17.5-18.91s7.841-18.9,17.5-18.9c0,0,2.141-0.12,3.5,0l0.28-22.19l-20.99,0.08
			c0.131,1.36-0.05,3.5-0.05,3.5c0,9.66-8.46,17.5-18.899,17.5c-10.44,0-18.91-7.84-18.91-17.5c0,0-0.12-2.14,0-3.5h-20.971
			c0.131,1.36-0.05,3.5-0.05,3.5c0,9.66-8.46,17.5-18.899,17.5c-10.44,0-18.91-7.84-18.91-17.5c0,0-0.12-2.14,0-3.5h-20.97
			c0.13,1.36-0.05,3.5-0.05,3.5c0,9.66-8.47,17.5-18.9,17.5c-10.44,0-18.91-7.84-18.91-17.5c0,0-0.13-2.14,0-3.5h-20.97
			c0.12,1.36-0.06,3.5-0.06,3.5c0,9.66-8.46,17.5-18.9,17.5c-10.43,0-18.9-7.84-18.9-17.5c0,0-0.13-2.14,0-3.5H1.634l0.23,20.81
			c1.36-0.12,3.5,0,3.5,0c9.66,0,17.5,8.47,17.5,18.91s-7.84,18.9-17.5,18.9c0,0-2.14,0.18-3.5,0.05v20.97c1.36-0.12,3.5,0,3.5,0
			c9.66,0,17.5,8.47,17.5,18.91s-7.84,18.9-17.5,18.9c0,0-2.14,0.18-3.5,0.05v20.97c1.36-0.12,3.5,0,3.5,0
			c9.66,0,17.5,8.47,17.5,18.91s-7.84,18.9-17.5,18.9c0,0-2.14,0.18-3.5,0.05v20.97c1.36-0.119,3.5,0,3.5,0
			c9.66,0,17.5,8.471,17.5,18.91c0,10.44-7.84,18.9-17.5,18.9c0,0-2.14,0.18-3.5,0.05v20.97c1.36-0.12,3.5,0,3.5,0
			c9.66,0,17.5,8.471,17.5,18.91c0,10.44-7.84,18.9-17.5,18.9c0,0-2.14,0.12-3.5,0l-1.09,22.12h20.96c-0.12-1.36,0.06-3.5,0.06-3.5
			c0-9.67,8.46-17.5,18.9-17.5s18.91,7.83,18.91,17.5c0,0,0.12,2.14,0,3.5h20.97c-0.13-1.36,0.05-3.5,0.05-3.5
			c0-9.67,8.46-17.5,18.9-17.5s18.91,7.83,18.91,17.5c0,0,0.12,2.14,0,3.5h20.97c-0.13-1.36,0.05-3.5,0.05-3.5
			c0-9.67,8.46-17.5,18.9-17.5s18.91,7.83,18.91,17.5c0,0,0.12,2.14,0,3.5h20.97c-0.13-1.36,0.05-3.5,0.05-3.5
			c0-9.67,8.46-17.5,18.9-17.5c10.439,0,18.91,7.83,18.91,17.5c0,0,0.12,2.14,0,3.5l21.81-0.04l-0.24-20.771
			C256.305,295.948,254.164,295.828,254.164,295.828z M226.354,281.068h-194v-248h194V281.068z"/>
		<path fill="none" stroke="#000000" stroke-miterlimit="3.8637" d="M254.164,295.828c-9.67,0-17.5-8.47-17.5-18.91
			c0-10.439,7.841-18.899,17.5-18.899c0,0,2.141-0.181,3.5-0.061v-20.97c-1.359,0.13-3.5,0-3.5,0c-9.67,0-17.5-8.46-17.5-18.9
			c0-10.439,7.841-18.899,17.5-18.899c0,0,2.141-0.18,3.5-0.061v-20.97c-1.359,0.13-3.5,0-3.5,0c-9.67,0-17.5-8.47-17.5-18.899
			c0-10.44,7.841-18.9,17.5-18.9c0,0,2.141-0.18,3.5-0.06v-20.97c-1.359,0.13-3.5,0-3.5,0c-9.67,0-17.5-8.47-17.5-18.91
			c0-10.43,7.841-18.9,17.5-18.9c0,0,2.141-0.18,3.5-0.05v-20.97c-1.359,0.12-3.5,0-3.5,0c-9.67,0-17.5-8.47-17.5-18.91
			s7.841-18.9,17.5-18.9c0,0,2.141-0.12,3.5,0l0.28-22.19l-20.99,0.08c0.131,1.36-0.05,3.5-0.05,3.5c0,9.66-8.46,17.5-18.899,17.5
			c-10.44,0-18.91-7.84-18.91-17.5c0,0-0.12-2.14,0-3.5h-20.971c0.131,1.36-0.05,3.5-0.05,3.5c0,9.66-8.46,17.5-18.899,17.5
			c-10.44,0-18.91-7.84-18.91-17.5c0,0-0.12-2.14,0-3.5h-20.97c0.13,1.36-0.05,3.5-0.05,3.5c0,9.66-8.47,17.5-18.9,17.5
			c-10.44,0-18.91-7.84-18.91-17.5c0,0-0.13-2.14,0-3.5h-20.97c0.12,1.36-0.06,3.5-0.06,3.5c0,9.66-8.46,17.5-18.9,17.5
			c-10.43,0-18.9-7.84-18.9-17.5c0,0-0.13-2.14,0-3.5H1.634l0.23,20.81c1.36-0.12,3.5,0,3.5,0c9.66,0,17.5,8.47,17.5,18.91
			s-7.84,18.9-17.5,18.9c0,0-2.14,0.18-3.5,0.05v20.97c1.36-0.12,3.5,0,3.5,0c9.66,0,17.5,8.47,17.5,18.91s-7.84,18.9-17.5,18.9
			c0,0-2.14,0.18-3.5,0.05v20.97c1.36-0.12,3.5,0,3.5,0c9.66,0,17.5,8.47,17.5,18.91s-7.84,18.9-17.5,18.9c0,0-2.14,0.18-3.5,0.05
			v20.97c1.36-0.119,3.5,0,3.5,0c9.66,0,17.5,8.471,17.5,18.91c0,10.44-7.84,18.9-17.5,18.9c0,0-2.14,0.18-3.5,0.05v20.97
			c1.36-0.12,3.5,0,3.5,0c9.66,0,17.5,8.471,17.5,18.91c0,10.44-7.84,18.9-17.5,18.9c0,0-2.14,0.12-3.5,0l-1.09,22.12h20.96
			c-0.12-1.36,0.06-3.5,0.06-3.5c0-9.67,8.46-17.5,18.9-17.5s18.91,7.83,18.91,17.5c0,0,0.12,2.14,0,3.5h20.97
			c-0.13-1.36,0.05-3.5,0.05-3.5c0-9.67,8.46-17.5,18.9-17.5s18.91,7.83,18.91,17.5c0,0,0.12,2.14,0,3.5h20.97
			c-0.13-1.36,0.05-3.5,0.05-3.5c0-9.67,8.46-17.5,18.9-17.5s18.91,7.83,18.91,17.5c0,0,0.12,2.14,0,3.5h20.97
			c-0.13-1.36,0.05-3.5,0.05-3.5c0-9.67,8.46-17.5,18.9-17.5c10.439,0,18.91,7.83,18.91,17.5c0,0,0.12,2.14,0,3.5l21.81-0.04
			l-0.24-20.771C256.305,295.948,254.164,295.828,254.164,295.828z M226.354,281.068h-194v-248h194V281.068z"/>
	</g>
</g>
</svg>
