<?xml version="1.0" encoding="utf-8"?>
<!-- Generator: Adobe Illustrator 15.0.2, SVG Export Plug-In . SVG Version: 6.00 Build 0)  -->
<!DOCTYPE svg PUBLIC "-//W3C//DTD SVG 1.1//EN" "http://www.w3.org/Graphics/SVG/1.1/DTD/svg11.dtd">
<svg version="1.1" id="Layer_1" xmlns="http://www.w3.org/2000/svg" xmlns:xlink="http://www.w3.org/1999/xlink" x="0px" y="0px"
	 width="315.988px" height="316.218px" viewBox="0 0 315.988 316.218" enable-background="new 0 0 315.988 316.218"
	 xml:space="preserve">
<g id="Background">
</g>
<g id="Guides">
</g>
<g id="Foreground">
	<g>
		<path d="M311.394,295.249c-9.66,0-17.5-8.47-17.5-18.909c0-10.44,7.84-18.9,17.5-18.9c0,0,2.14-0.18,3.5-0.05v-20.971
			c-1.36,0.12-3.5,0-3.5,0c-9.66,0-17.5-8.47-17.5-18.909c0-10.44,7.84-18.9,17.5-18.9c0,0,2.14-0.18,3.5-0.05v-20.97
			c-1.36,0.119-3.5,0-3.5,0c-9.66,0-17.5-8.471-17.5-18.91c0-10.44,7.84-18.9,17.5-18.9c0,0,2.14-0.18,3.5-0.05v-20.97
			c-1.36,0.12-3.5,0-3.5,0c-9.66,0-17.5-8.47-17.5-18.91c0-10.44,7.84-18.9,17.5-18.9c0,0,2.14-0.18,3.5-0.05v-20.98
			c-1.36,0.13-3.5,0-3.5,0c-9.66,0-17.5-8.46-17.5-18.9s7.84-18.9,17.5-18.9c0,0,2.14-0.13,3.5,0l1.09-22.12h-20.971
			c0.131,1.36-0.05,3.5-0.05,3.5c0,9.67-8.46,17.5-18.899,17.5c-10.44,0-18.91-7.83-18.91-17.5c0,0-0.12-2.14,0-3.5h-20.97
			c0.13,1.36-0.051,3.5-0.051,3.5c0,9.67-8.46,17.5-18.899,17.5c-10.44,0-18.91-7.83-18.91-17.5c0,0-0.12-2.14,0-3.5h-20.97
			c0.13,1.36-0.051,3.5-0.051,3.5c0,9.67-8.46,17.5-18.899,17.5c-10.44,0-18.91-7.83-18.91-17.5c0,0-0.12-2.14,0-3.5h-20.97
			c0.13,1.36-0.05,3.5-0.05,3.5c0,9.67-8.47,17.5-18.9,17.5c-10.44,0-18.91-7.83-18.91-17.5c0,0-0.12-2.14,0-3.5h-20.97
			c0.12,1.36-0.05,3.5-0.05,3.5c0,9.67-8.47,17.5-18.9,17.5c-10.44,0-18.91-7.83-18.91-17.5c0,0-0.13-2.14,0-3.5H0.864l0.23,20.81
			c1.36-0.12,3.5,0,3.5,0c9.67,0,17.5,8.47,17.5,18.91s-7.83,18.9-17.5,18.9c0,0-2.14,0.18-3.5,0.06v20.97c1.36-0.13,3.5,0,3.5,0
			c9.67,0,17.5,8.46,17.5,18.9s-7.83,18.9-17.5,18.9c0,0-2.14,0.18-3.5,0.06v20.97c1.36-0.13,3.5,0,3.5,0
			c9.67,0,17.5,8.46,17.5,18.9s-7.83,18.9-17.5,18.9c0,0-2.14,0.18-3.5,0.061v20.97c1.36-0.13,3.5,0,3.5,0
			c9.67,0,17.5,8.47,17.5,18.899c0,10.44-7.83,18.9-17.5,18.9c0,0-2.14,0.18-3.5,0.06v20.971c1.36-0.13,3.5,0,3.5,0
			c9.67,0,17.5,8.47,17.5,18.91c0,10.43-7.83,18.89-17.5,18.89c0,0-2.14,0.13-3.5,0l-1.09,22.12h20.97c-0.13-1.36,0.05-3.5,0.05-3.5
			c0-9.66,8.46-17.5,18.9-17.5s18.91,7.84,18.91,17.5c0,0,0.12,2.14,0,3.5h20.97c-0.13-1.36,0.05-3.5,0.05-3.5
			c0-9.66,8.46-17.5,18.9-17.5c10.44,0,18.91,7.84,18.91,17.5c0,0,0.12,2.14,0,3.5h20.97c-0.13-1.36,0.05-3.5,0.05-3.5
			c0-9.66,8.46-17.5,18.9-17.5c10.44,0,18.91,7.84,18.91,17.5c0,0,0.12,2.14,0,3.5h20.97c-0.13-1.36,0.05-3.5,0.05-3.5
			c0-9.66,8.471-17.5,18.9-17.5c10.44,0,18.91,7.84,18.91,17.5c0,0,0.13,2.14,0,3.5h20.97c-0.12-1.36,0.05-3.5,0.05-3.5
			c0-9.66,8.471-17.5,18.9-17.5c10.44,0,18.91,7.84,18.91,17.5c0,0,0.13,2.14,0,3.5l20.97,0.16l-0.229-20.971
			C313.534,295.369,311.394,295.249,311.394,295.249z M277.494,279.609h-239v-243h239V279.609z"/>
	</g>
</g>
</svg>
