<?xml version="1.0" encoding="utf-8"?>
<!-- Generator: Adobe Illustrator 13.0.2, SVG Export Plug-In . SVG Version: 6.00 Build 14948)  -->
<!DOCTYPE svg PUBLIC "-//W3C//DTD SVG 1.1//EN" "http://www.w3.org/Graphics/SVG/1.1/DTD/svg11.dtd">
<svg version="1.1" xmlns="http://www.w3.org/2000/svg" xmlns:xlink="http://www.w3.org/1999/xlink" x="0px" y="0px"
	 width="321.418px" height="333.626px" viewBox="0 0 321.418 333.626" enable-background="new 0 0 321.418 333.626"
	 xml:space="preserve">
<g id="Background">
</g>
<g id="Guides">
</g>
<g id="Foreground">
	<g>
		<g>
			<path fill-rule="evenodd" clip-rule="evenodd" d="M304.195,169.989c17.222,11.665,14.558,67.846,9.949,102.565l-53.601-4.393
				c-11.468-0.939-28.933-6.764-37.096,3.672c-2.254,2.882-3.277,6.7-2.452,10.157c1.372,5.745,8.618,7.405,11.521,12.318
				c15.081,25.52-19.784,46.307-55.235,37.094c-22.883-5.947-39.531-19.655-21.409-39.976c7.153-8.021,31.462-11.537,13.973-26.867
				c-11.18-9.8-85.356,10.03-101.401,14.479c-14.25-46.223,43.02-105.972,18.139-113.373c-24.815-7.381-36.383,24.104-67.654,11.598
				c-24.756-9.902-23.962-58.471-4.983-71.236c31.469-21.165,60.467,29.192,77.541,11.667c11.194-11.49-6.568-40.043-9.887-53.014
				C76.194,43.549,74.376,21.622,75.062,0c21.003,2.688,75.711,7.493,89.879,20.313c29.495,26.689-20.515,41.808,3.27,68.354
				c4.504,5.027,10.484,8.162,17.322,10.157c14.042,4.095,25.383,0.792,37.914-5.113c55.185-26.007-12.604-35.766-1.634-65.402
				c8.926-24.117,74.906-22.928,98.949-21.104c0.708,19.475,4.078,105.932-15.767,115.464c-6.794,3.264-15.142,6.809-23.043,6.554
				c-12.362-0.398-14.916-13.312-28.026-15.27c-12.26-1.831-26.036,0.163-33.01,10.157c-8.442,12.1-10.448,44.619,4.983,53.804
				c9.672,5.758,21.538,6.9,32.113,2.162C268.892,175.201,275.949,145.505,304.195,169.989z"/>
			<path fill-rule="evenodd" clip-rule="evenodd" d="M304.195,169.989c17.222,11.665,14.558,67.846,9.949,102.565l-53.601-4.393
				c-11.468-0.939-28.933-6.764-37.096,3.672c-2.254,2.882-3.277,6.7-2.452,10.157c1.372,5.745,8.618,7.405,11.521,12.318
				c15.081,25.52-19.784,46.307-55.235,37.094c-22.883-5.947-39.531-19.655-21.409-39.976c7.153-8.021,31.462-11.537,13.973-26.867
				c-11.18-9.8-85.356,10.03-101.401,14.479c-14.25-46.223,43.02-105.972,18.139-113.373c-24.815-7.381-36.383,24.104-67.654,11.598
				c-24.756-9.902-23.962-58.471-4.983-71.236c31.469-21.165,60.467,29.192,77.541,11.667c11.194-11.49-6.568-40.043-9.887-53.014
				C76.194,43.549,74.376,21.622,75.062,0c21.003,2.688,75.711,7.493,89.879,20.313c29.495,26.689-20.515,41.808,3.27,68.354
				c4.504,5.027,10.484,8.162,17.322,10.157c14.042,4.095,25.383,0.792,37.914-5.113c55.185-26.007-12.604-35.766-1.634-65.402
				c8.926-24.117,74.906-22.928,98.949-21.104c0.708,19.475,4.078,105.932-15.767,115.464c-6.794,3.264-15.142,6.809-23.043,6.554
				c-12.362-0.398-14.916-13.312-28.026-15.27c-12.26-1.831-26.036,0.163-33.01,10.157c-8.442,12.1-10.448,44.619,4.983,53.804
				c9.672,5.758,21.538,6.9,32.113,2.162C268.892,175.201,275.949,145.505,304.195,169.989z"/>
		</g>
	</g>
</g>
</svg>
