<?xml version="1.0" encoding="utf-8"?>
<!-- Generator: Adobe Illustrator 13.0.2, SVG Export Plug-In . SVG Version: 6.00 Build 14948)  -->
<!DOCTYPE svg PUBLIC "-//W3C//DTD SVG 1.1//EN" "http://www.w3.org/Graphics/SVG/1.1/DTD/svg11.dtd">
<svg version="1.1" xmlns="http://www.w3.org/2000/svg" xmlns:xlink="http://www.w3.org/1999/xlink" x="0px" y="0px"
	 width="345.823px" height="275.249px" viewBox="0 0 345.823 275.249" enable-background="new 0 0 345.823 275.249"
	 xml:space="preserve">
<g id="Background">
</g>
<g id="Guides">
</g>
<g id="Foreground">
	<g>
		<path fill-rule="evenodd" clip-rule="evenodd" d="M276.875,21.807c9.664,39.011-20.42,64.504-11.458,81.86
			c15.483,29.984,52.704-14.921,73.861,10.558c16.972,20.439-1.199,62.588-29.954,56c-8.925-2.044-15.642-10.601-24.512-12.418
			c-4.279-0.877-8.342-0.851-12.418,0.837c-3.007,1.245-5.479,3.057-7.488,5.627c-9.855,12.611,7.59,34.076,11.907,45.954
			c6.792,18.687,10.091,40.745,6.977,60.419c-16.572-2.008-75.079-1.389-83.907-10.884c-4.681-5.034-6.646-11.223-6.139-18.046
			c0.887-11.965,22.784-18.112,15.163-43.07c-7.153-23.422-47.575-28.133-60.605-16c-23.907,22.261,5.467,46.251-0.511,65.023
			c-7.337,23.04-71.678,26.638-92.418,27.582c-0.826-9.274-0.653-18.344,0.511-27.582c1.435-11.389,4.022-21.923,8.512-32.512
			c6.537-15.416,15.986-41.963,13.442-46.465c-15.345-27.151-53.669,34.926-74.558-13.442c-4.33-10.025-4.234-18.224-0.512-28.419
			c2.506-6.863,5.741-12.014,11.582-16.511c26.717-20.573,39.982,7.733,54.465,7.488c4.13-0.07,8.283-0.746,11.07-4.093
			c7.091-8.518-14.879-59.683-17.023-73.023c-2.346-14.594-2.166-25.984,0.512-40.512c26.978-0.708,87.739-1.117,90.046,36.093
			c0.988,15.931-29.088,42.337,8.838,57.535c19.849,7.954,60.185-5.255,50.046-32.512c-4.062-10.919-20.42-16.702-18.884-32.512
			c2.395-24.646,44.595-26.976,62.977-24.512c0,0,10.434-0.042,17.023,0.837C275.141,11.532,276.875,21.807,276.875,21.807z"/>
		<path fill-rule="evenodd" clip-rule="evenodd" d="M276.875,21.807c9.664,39.011-20.42,64.504-11.458,81.86
			c15.483,29.984,52.704-14.921,73.861,10.558c16.972,20.439-1.199,62.588-29.954,56c-8.925-2.044-15.642-10.601-24.512-12.418
			c-4.279-0.877-8.342-0.851-12.418,0.837c-3.007,1.245-5.479,3.057-7.488,5.627c-9.855,12.611,7.59,34.076,11.907,45.954
			c6.792,18.687,10.091,40.745,6.977,60.419c-16.572-2.008-75.079-1.389-83.907-10.884c-4.681-5.034-6.646-11.223-6.139-18.046
			c0.887-11.965,22.784-18.112,15.163-43.07c-7.153-23.422-47.575-28.133-60.605-16c-23.907,22.261,5.467,46.251-0.511,65.023
			c-7.337,23.04-71.678,26.638-92.418,27.582c-0.826-9.274-0.653-18.344,0.511-27.582c1.435-11.389,4.022-21.923,8.512-32.512
			c6.537-15.416,15.986-41.963,13.442-46.465c-15.345-27.151-53.669,34.926-74.558-13.442c-4.33-10.025-4.234-18.224-0.512-28.419
			c2.506-6.863,5.741-12.014,11.582-16.511c26.717-20.573,39.982,7.733,54.465,7.488c4.13-0.07,8.283-0.746,11.07-4.093
			c7.091-8.518-14.879-59.683-17.023-73.023c-2.346-14.594-2.166-25.984,0.512-40.512c26.978-0.708,87.739-1.117,90.046,36.093
			c0.988,15.931-29.088,42.337,8.838,57.535c19.849,7.954,60.185-5.255,50.046-32.512c-4.062-10.919-20.42-16.702-18.884-32.512
			c2.395-24.646,44.595-26.976,62.977-24.512c0,0,10.434-0.042,17.023,0.837C275.141,11.532,276.875,21.807,276.875,21.807z"/>
	</g>
</g>
</svg>
