<?xml version="1.0" encoding="utf-8"?>
<!-- Generator: Adobe Illustrator 13.0.2, SVG Export Plug-In . SVG Version: 6.00 Build 14948)  -->
<!DOCTYPE svg PUBLIC "-//W3C//DTD SVG 1.1//EN" "http://www.w3.org/Graphics/SVG/1.1/DTD/svg11.dtd">
<svg version="1.1" xmlns="http://www.w3.org/2000/svg" xmlns:xlink="http://www.w3.org/1999/xlink" x="0px" y="0px"
	 width="346.12px" height="269.916px" viewBox="0 0 346.12 269.916" enable-background="new 0 0 346.12 269.916"
	 xml:space="preserve">
<g id="Background">
</g>
<g id="Guides">
</g>
<g id="Foreground">
	<g>
		<path fill-rule="evenodd" clip-rule="evenodd" d="M273.918,111.088V1.061L231.874,3.18c-15.93,1.269-21.9-0.666-32.252,13.35
			c-3.687,4.991-6.585,10.302-5.745,16.714c1.278,9.757,27.157,21.558,21.283,40.869c-5.366,17.641-45.439,25.694-59.737,14.559
			c-6.982-5.438-11.365-12.021-11.947-21.022c-0.822-12.685,18.872-26.23,7.638-47.528c-3.599-6.823-12-14.82-20.304-14.82L72.509,0
			v111.929c-24.241,4.476-21.037-22.566-53.273-7.4c-20.854,9.812-27.418,49.149-6.203,61.631
			c23.773,13.986,32.759-8.517,59.476-10.319v114.076l54.71-9.54c5.702,0,10.501-1.749,14.82-5.484
			c20.829-18.014-6.652-39.555-3.591-52.556c3.185-13.523,23.937-25.705,33.667-26.124c10.293-0.443,32.979,9.804,38.018,23.252
			c7.495,20.002-20.195,32.518-15.538,49.943c2.727,10.204,10.1,11.688,19.129,11.688l60.194,7.419V157.53
			c22.303-8.65,28.918,18.709,54.71,7.139c21.23-9.523,27.72-59.602-6.92-61.631C300.032,101.77,297.143,120.107,273.918,111.088z"
			/>
	</g>
</g>
</svg>
