<?xml version="1.0" encoding="utf-8"?>
<!-- Generator: Adobe Illustrator 13.0.2, SVG Export Plug-In . SVG Version: 6.00 Build 14948)  -->
<!DOCTYPE svg PUBLIC "-//W3C//DTD SVG 1.1//EN" "http://www.w3.org/Graphics/SVG/1.1/DTD/svg11.dtd">
<svg version="1.1" xmlns="http://www.w3.org/2000/svg" xmlns:xlink="http://www.w3.org/1999/xlink" x="0px" y="0px"
	 width="345.08px" height="334.804px" viewBox="0 0 345.08 334.804" enable-background="new 0 0 345.08 334.804"
	 xml:space="preserve">
<g id="Background">
</g>
<g id="Guides">
</g>
<g id="Foreground">
	<path fill-rule="evenodd" clip-rule="evenodd" d="M282.882,7.209c1.181,36.972-29.187,104.651-10.233,105.512
		c21.388,3.652,43.906-22.71,59.674-10.232c19.366,15.325,16.287,58.705-6.558,69.837c-29.247,14.251-50.954-31.349-57.512-2.232
		c-3.605,45.047,13.336,63.879,8.791,102.628l-47.279-4.396c-9.385-0.872-25.574-6.74-32.721,3.675
		c-2.078,3.028-2.784,6.547-2.163,10.163c1.017,5.921,7.763,7.116,10.163,12.326c6.557,14.231,0.018,27.124-12.396,34.954
		c-12.162,7.671-23.209,5.902-36.326,2.163c-19.71-5.619-34.987-19.252-18.884-40c2.927-3.771,28.005-12.474,12.326-26.884
		c-10.49-9.64-74.931,9.925-89.442,14.488c-13.907-50.884,39.931-105.442,16-113.442c-22.187-7.417-31.515,24.137-59.674,11.605
		c-26.232-11.675-16.521-61.868-4.395-71.279c27.577-21.402,52.807,29.059,68.395,11.675c9.965-11.114-6.116-40.866-8.721-53.047
		C67.297,43.062,65.543,22.125,66.161,0c18.593,2.722,67.014,7.766,79.279,20.325c26.233,26.863-18.149,41.16,2.884,68.396
		c4.12,5.334,8.987,8.032,15.279,10.163c12.626,4.275,22.171,0.802,33.442-5.116c48.502-25.469-10.691-35.779-1.442-65.442
		c4.776-15.318,16.797-15.801,29.837-18.163C245.031,6.615,263.016,5.5,282.882,7.209z"/>
</g>
</svg>
