<?xml version="1.0" encoding="utf-8"?>
<!-- Generator: Adobe Illustrator 13.0.2, SVG Export Plug-In . SVG Version: 6.00 Build 14948)  -->
<!DOCTYPE svg PUBLIC "-//W3C//DTD SVG 1.1//EN" "http://www.w3.org/Graphics/SVG/1.1/DTD/svg11.dtd">
<svg version="1.1" xmlns="http://www.w3.org/2000/svg" xmlns:xlink="http://www.w3.org/1999/xlink" x="0px" y="0px"
	 width="345.08px" height="272.98px" viewBox="0 0 345.08 272.98" enable-background="new 0 0 345.08 272.98" xml:space="preserve">
<g id="Background">
</g>
<g id="Guides">
</g>
<g id="Foreground">
	<g>
		<path fill-rule="evenodd" clip-rule="evenodd" d="M276.057,272.98H58.969c-8.281-49.02,24.065-97.817,17.355-101.213
			c-20.873-10.562-31.514,24.137-59.674,11.604c-26.232-11.674-16.521-67.868-4.395-77.278
			c27.577-21.403,49.563,22.453,65.151,5.069c9.965-11.113-2.873-34.261-5.477-46.441C67.298,43.062,65.544,22.126,66.162,0
			c18.594,2.722,67.014,7.766,79.279,20.326c26.232,26.862-18.15,41.159,2.883,68.396c4.12,5.334,8.987,8.031,15.279,10.162
			c12.626,4.275,22.532,4.755,33.803-1.163c48.502-25.469-12.645-43.871-3.396-73.534c4.776-15.318,17.936-15.174,30.977-17.535
			c19.591-3.548,38.029-1.15,57.896,0.559c1.181,36.971-29.187,104.65-10.233,105.512c21.388,3.652,43.906-22.711,59.675-10.233
			c19.366,15.325,16.287,67.706-6.559,78.838c-29.247,14.251-50.953-31.349-57.511-2.232
			C264.649,224.14,280.603,234.23,276.057,272.98z"/>
		<path fill-rule="evenodd" clip-rule="evenodd" d="M276.057,272.98H58.969c-8.281-49.02,24.065-97.817,17.355-101.213
			c-20.873-10.562-31.514,24.137-59.674,11.604c-26.232-11.674-16.521-67.868-4.395-77.278
			c27.577-21.403,49.563,22.453,65.151,5.069c9.965-11.113-2.873-34.261-5.477-46.441C67.298,43.062,65.544,22.126,66.162,0
			c18.594,2.722,67.014,7.766,79.279,20.326c26.232,26.862-18.15,41.159,2.883,68.396c4.12,5.334,8.987,8.031,15.279,10.162
			c12.626,4.275,22.532,4.755,33.803-1.163c48.502-25.469-12.645-43.871-3.396-73.534c4.776-15.318,17.936-15.174,30.977-17.535
			c19.591-3.548,38.029-1.15,57.896,0.559c1.181,36.971-29.187,104.65-10.233,105.512c21.388,3.652,43.906-22.711,59.675-10.233
			c19.366,15.325,16.287,67.706-6.559,78.838c-29.247,14.251-50.953-31.349-57.511-2.232
			C264.649,224.14,280.603,234.23,276.057,272.98z"/>
	</g>
</g>
</svg>
