<?xml version="1.0" encoding="utf-8"?>
<!-- Generator: Adobe Illustrator 15.0.2, SVG Export Plug-In . SVG Version: 6.00 Build 0)  -->
<svg version="1.1" id="Layer_1" 
	 xmlns="http://www.w3.org/2000/svg" xmlns:xlink="http://www.w3.org/1999/xlink" x="0px" y="0px" width="204.824px"
	 height="203.611px" viewBox="0 0 204.824 203.611" enable-background="new 0 0 204.824 203.611" xml:space="preserve">
	<g id="Foreground">
		<path d="M103.079,203.611c4.329-3.092,8.267-6.744,12.1-10.42c18.548-17.787,35.721-37.632,51.833-57.631
			c19.942-24.751,35.505-53.68,37.646-85.951c0.919-13.853-1.798-29.34-12.154-39.402c-8.243-8.01-22.907-11.543-34.212-9.749
			c-22.188,3.522-41.37,20.775-55.879,36.819C87.903,21.233,68.722,3.979,46.533,0.458c-11.305-1.794-25.969,1.739-34.212,9.749
			C1.965,20.269-0.752,35.756,0.167,49.609c2.141,32.271,17.703,61.2,37.646,85.951c16.112,19.999,33.285,39.844,51.833,57.631
			c3.833,3.676,7.771,7.328,12.1,10.42H103.079z"/>
	</g>
</svg>
