<?xml version="1.0" encoding="utf-8"?>
<!-- Generator: Adobe Illustrator 13.0.2, SVG Export Plug-In . SVG Version: 6.00 Build 14948)  -->
<!DOCTYPE svg PUBLIC "-//W3C//DTD SVG 1.1//EN" "http://www.w3.org/Graphics/SVG/1.1/DTD/svg11.dtd">
<svg version="1.1" xmlns="http://www.w3.org/2000/svg" xmlns:xlink="http://www.w3.org/1999/xlink" x="0px" y="0px"
	 width="332.858px" height="332.858px" viewBox="0 0 332.858 332.858" enable-background="new 0 0 332.858 332.858"
	 xml:space="preserve">
<g id="Background">
</g>
<g id="Guides">
</g>
<g id="Foreground">
	<g>
		<path d="M43.34,166.429c0,67.981,55.108,123.089,123.089,123.089c67.981,0,123.089-55.108,123.089-123.089
			c0-67.981-55.108-123.089-123.089-123.089C98.448,43.34,43.34,98.448,43.34,166.429z M0,166.429C0,74.512,74.512,0,166.429,0
			c91.917,0,166.429,74.512,166.429,166.429c0,91.917-74.512,166.429-166.429,166.429C74.512,332.858,0,258.346,0,166.429z"/>
		<path d="M55.089,166.429c0,61.492,49.848,111.34,111.339,111.34c61.492,0,111.34-49.848,111.34-111.34
			s-49.848-111.34-111.34-111.34C104.937,55.089,55.089,104.937,55.089,166.429z M49.214,166.429
			c0-64.736,52.478-117.214,117.214-117.214c64.737,0,117.214,52.478,117.214,117.214c0,64.737-52.478,117.215-117.214,117.215
			C101.692,283.644,49.214,231.166,49.214,166.429z"/>
	</g>
</g>
</svg>
