<?xml version="1.0" encoding="utf-8"?>
<!-- Generator: Adobe Illustrator 13.0.2, SVG Export Plug-In . SVG Version: 6.00 Build 14948)  -->
<!DOCTYPE svg PUBLIC "-//W3C//DTD SVG 1.1//EN" "http://www.w3.org/Graphics/SVG/1.1/DTD/svg11.dtd">
<svg version="1.1" xmlns="http://www.w3.org/2000/svg" xmlns:xlink="http://www.w3.org/1999/xlink" x="0px" y="0px"
	 width="294.961px" height="312.015px" viewBox="0 0 294.961 312.015" enable-background="new 0 0 294.961 312.015"
	 xml:space="preserve">
<g id="Background">
</g>
<g id="Guides">
</g>
<g id="Foreground">
	<path fill-rule="evenodd" clip-rule="evenodd" d="M12.539,59.769v194.008H280.41V59.769H12.539z M12.301,265.308v33.944h24.395
		v-33.944H12.301z M61.091,265.308v33.944h24.396v-33.944H61.091z M109.882,265.308v33.944h24.395v-33.944H109.882z
		 M158.672,265.308v33.944h24.396v-33.944H158.672z M207.463,265.308v33.944h24.396v-33.944H207.463z M256.254,265.308v33.944
		h24.395v-33.944H256.254z M12.301,12.917v33.945h24.395V12.917H12.301z M61.091,12.917v33.945h24.396V12.917H61.091z
		 M109.882,12.917v33.945h24.395V12.917H109.882z M158.672,12.917v33.945h24.396V12.917H158.672z M207.463,12.917v33.945h24.396
		V12.917H207.463z M256.254,12.917v33.945h24.395V12.917H256.254z M0,0h294.961v312.015H0V0z"/>
</g>
</svg>
