<?xml version="1.0" encoding="utf-8"?>
<!-- Generator: Adobe Illustrator 13.0.2, SVG Export Plug-In . SVG Version: 6.00 Build 14948)  -->
<!DOCTYPE svg PUBLIC "-//W3C//DTD SVG 1.1//EN" "http://www.w3.org/Graphics/SVG/1.1/DTD/svg11.dtd">
<svg version="1.1" xmlns="http://www.w3.org/2000/svg" xmlns:xlink="http://www.w3.org/1999/xlink" x="0px" y="0px"
	 width="163.074px" height="209.668px" viewBox="0 0 163.074 209.668" enable-background="new 0 0 163.074 209.668"
	 xml:space="preserve">
<g id="Background">
</g>
<g id="Guides">
</g>
<g id="Foreground">
	<g>
		<g>
			<circle cx="11.648" cy="11.648" r="11.648"/>
			<path d="M11.648,11.648"/>
		</g>
		<g>
			<circle cx="34.944" cy="11.648" r="11.648"/>
			<path d="M34.944,11.648"/>
		</g>
		<g>
			<circle cx="58.241" cy="11.648" r="11.648"/>
			<path d="M58.241,11.648"/>
		</g>
		<g>
			<circle cx="81.538" cy="11.648" r="11.649"/>
			<path d="M81.537,11.648"/>
		</g>
		<g>
			<circle cx="104.834" cy="11.648" r="11.647"/>
			<path d="M104.833,11.648"/>
		</g>
		<g>
			<circle cx="128.129" cy="11.648" r="11.648"/>
			<path d="M128.13,11.648"/>
		</g>
		<g>
			<circle cx="11.648" cy="34.945" r="11.648"/>
			<path d="M11.648,34.945"/>
		</g>
		<g>
			<circle cx="11.648" cy="58.241" r="11.648"/>
			<path d="M11.648,58.241"/>
		</g>
		<g>
			<circle cx="11.648" cy="81.537" r="11.648"/>
			<path d="M11.648,81.537"/>
		</g>
		<g>
			<circle cx="11.648" cy="104.835" r="11.648"/>
			<path d="M11.648,104.835"/>
		</g>
		<g>
			<circle cx="11.648" cy="128.131" r="11.648"/>
			<path d="M11.648,128.131"/>
		</g>
		<g>
			<circle cx="11.648" cy="151.427" r="11.648"/>
			<path d="M11.648,151.427"/>
		</g>
		<g>
			<circle cx="151.426" cy="11.648" r="11.648"/>
			<path d="M151.426,11.648"/>
		</g>
		<g>
			<circle cx="34.944" cy="198.021" r="11.648"/>
			<path d="M34.944,198.021"/>
		</g>
		<g>
			<circle cx="58.241" cy="198.021" r="11.648"/>
			<path d="M58.241,198.021"/>
		</g>
		<g>
			<circle cx="81.538" cy="198.021" r="11.649"/>
			<path d="M81.537,198.021"/>
		</g>
		<g>
			<circle cx="104.834" cy="198.021" r="11.647"/>
			<path d="M104.833,198.021"/>
		</g>
		<g>
			<circle cx="128.129" cy="198.021" r="11.648"/>
			<path d="M128.13,198.021"/>
		</g>
		<g>
			<circle cx="151.426" cy="151.427" r="11.648"/>
			<path d="M151.426,151.427"/>
		</g>
		<g>
			<circle cx="151.426" cy="34.945" r="11.648"/>
			<path d="M151.426,34.945"/>
		</g>
		<g>
			<circle cx="151.426" cy="58.241" r="11.648"/>
			<path d="M151.426,58.241"/>
		</g>
		<g>
			<circle cx="151.426" cy="81.537" r="11.648"/>
			<path d="M151.426,81.537"/>
		</g>
		<g>
			<circle cx="151.426" cy="104.835" r="11.648"/>
			<path d="M151.426,104.835"/>
		</g>
		<g>
			<circle cx="151.426" cy="128.131" r="11.648"/>
			<path d="M151.426,128.131"/>
		</g>
		<g>
			<circle cx="11.648" cy="174.724" r="11.648"/>
			<path d="M11.648,174.724"/>
		</g>
		<g>
			<circle cx="11.648" cy="198.021" r="11.648"/>
			<path d="M11.648,198.021"/>
		</g>
		<g>
			<circle cx="151.426" cy="174.724" r="11.648"/>
			<path d="M151.426,174.724"/>
		</g>
		<g>
			<circle cx="151.426" cy="198.021" r="11.648"/>
			<path d="M151.426,198.021"/>
		</g>
	</g>
	<rect x="11.057" y="9.976" width="141.479" height="189.527"/>
</g>
</svg>
