<?xml version="1.0" encoding="utf-8"?>
<!-- Generator: Adobe Illustrator 13.0.2, SVG Export Plug-In . SVG Version: 6.00 Build 14948)  -->
<!DOCTYPE svg PUBLIC "-//W3C//DTD SVG 1.1//EN" "http://www.w3.org/Graphics/SVG/1.1/DTD/svg11.dtd">
<svg version="1.1" xmlns="http://www.w3.org/2000/svg" xmlns:xlink="http://www.w3.org/1999/xlink" x="0px" y="0px"
	 width="211.711px" height="209.621px" viewBox="0 0 211.711 209.621" enable-background="new 0 0 211.711 209.621"
	 xml:space="preserve">
<g id="Background">
</g>
<g id="Guides">
</g>
<g id="Foreground">
	<g>
		<g>
			<g>
				<circle cx="64.004" cy="25.195" r="15.655"/>
				<path d="M64.004,25.195"/>
			</g>
			<g>
				<circle cx="93.82" cy="15.655" r="15.656"/>
				<path d="M93.819,15.655"/>
			</g>
			<g>
				<circle cx="124.98" cy="16.99" r="15.655"/>
				<path d="M124.981,16.99"/>
			</g>
			<g>
				<circle cx="153.946" cy="28.75" r="15.654"/>
				<path d="M153.946,28.75"/>
			</g>
			<g>
				<circle cx="177.025" cy="49.938" r="15.655"/>
				<path d="M177.026,49.938"/>
			</g>
			<g>
				<circle cx="191.789" cy="77.497" r="15.655"/>
				<path d="M191.788,77.497"/>
			</g>
			<g>
				<circle cx="196.057" cy="108.522" r="15.654"/>
				<path d="M196.057,108.522"/>
			</g>
			<g>
				<circle cx="39.247" cy="44.291" r="15.655"/>
				<path d="M39.248,44.291"/>
			</g>
			<g>
				<circle cx="22.297" cy="70.589" r="15.656"/>
				<path d="M22.296,70.589"/>
			</g>
		</g>
		<g>
			<g>
				<circle cx="147.708" cy="184.427" r="15.656"/>
				<path d="M147.708,184.427"/>
			</g>
			<g>
				<circle cx="117.893" cy="193.967" r="15.655"/>
				<path d="M117.893,193.967"/>
			</g>
			<g>
				<circle cx="86.732" cy="192.633" r="15.655"/>
				<path d="M86.731,192.633"/>
			</g>
			<g>
				<circle cx="57.766" cy="180.871" r="15.655"/>
				<path d="M57.767,180.871"/>
			</g>
			<g>
				<circle cx="34.687" cy="159.685" r="15.655"/>
				<path d="M34.688,159.685"/>
			</g>
			<g>
				<circle cx="19.925" cy="132.126" r="15.655"/>
				<path d="M19.925,132.126"/>
			</g>
			<g>
				<circle cx="15.655" cy="101.1" r="15.655"/>
				<path d="M15.655,101.1"/>
			</g>
			<g>
				<circle cx="172.465" cy="165.33" r="15.656"/>
				<path d="M172.465,165.33"/>
			</g>
			<g>
				<circle cx="189.416" cy="139.032" r="15.655"/>
				<path d="M189.415,139.032"/>
			</g>
		</g>
	</g>
	<circle cx="105.856" cy="104.811" r="91.75"/>
</g>
</svg>
