<?xml version="1.0" encoding="utf-8"?>
<!-- Generator: Adobe Illustrator 13.0.2, SVG Export Plug-In . SVG Version: 6.00 Build 14948)  -->
<!DOCTYPE svg PUBLIC "-//W3C//DTD SVG 1.1//EN" "http://www.w3.org/Graphics/SVG/1.1/DTD/svg11.dtd">
<svg version="1.1" xmlns="http://www.w3.org/2000/svg" xmlns:xlink="http://www.w3.org/1999/xlink" x="0px" y="0px"
	 width="855.015px" height="32.534px" viewBox="0 0 855.015 32.534" enable-background="new 0 0 855.015 32.534"
	 xml:space="preserve">
<g id="Background">
</g>
<g id="Guides">
</g>
<g id="Foreground">
	<path fill-rule="evenodd" clip-rule="evenodd" d="M0.012,21.766c-0.144,3.402,1.005,8.672,1.005,8.672l10.031-10.044
		c9.611-9.594,16.815,11.708,25.46,12.088c8.744,0.385,12.024-14.229,20.38-14.327c9.014-0.107,16.319,21.413,25.85,11.991
		L92.81,20.105c9.611-9.594,16.815,11.708,25.46,12.088c8.743,0.385,12.023-14.228,20.38-14.327
		c9.014-0.107,16.319,21.413,25.849,11.991l10.062-10.046c9.611-9.594,16.815,11.708,25.46,12.088
		c8.744,0.385,12.023-14.228,20.38-14.327c9.014-0.106,16.319,21.414,25.85,11.991l10.072-10.041
		c9.61-9.594,16.815,11.708,25.46,12.088c8.743,0.385,12.023-14.229,20.38-14.327c9.014-0.107,16.318,21.413,25.849,11.991
		l10.061-10.043c9.611-9.594,16.815,11.708,25.46,12.088c8.744,0.385,12.024-14.228,20.38-14.327
		c9.015-0.107,16.319,21.413,25.85,11.991l10.072-10.042c9.611-9.594,16.815,11.708,25.46,12.088
		c8.744,0.385,12.024-14.228,20.38-14.327c9.014-0.107,16.319,21.413,25.85,11.991l10.062-10.046
		c9.611-9.594,16.815,11.708,25.46,12.088c8.744,0.385,12.024-14.229,20.381-14.327c9.014-0.107,16.318,21.413,25.849,11.991
		l10.072-10.041c9.611-9.594,16.815,11.708,25.46,12.088c8.744,0.385,12.023-14.228,20.38-14.327
		c9.014-0.107,16.319,21.413,25.85,11.991l10.064-10.048c9.611-9.594,16.815,11.708,25.46,12.088
		c8.744,0.385,12.023-14.229,20.38-14.327c9.014-0.107,16.319,21.413,25.85,11.991l10.072-10.041
		c9.61-9.594,16.815,11.708,25.46,12.088c8.744,0.385,12.023-14.229,20.38-14.327c9.014-0.107,16.319,21.413,25.849,11.991
		l10.062-10.046c9.611-9.594,16.815,11.708,25.46,12.088c2.112-5.436,0-15,0-15c-8.645-0.38-15.849-21.682-25.46-12.088
		l-10.062,10.046c-9.53,9.422-16.835-12.098-25.849-11.991c-8.357,0.099-11.637,14.712-20.38,14.327
		c-8.645-0.381-15.85-21.682-25.46-12.088l-10.072,10.041c-9.531,9.422-16.835-12.098-25.85-11.991
		c-8.357,0.099-11.637,14.712-20.38,14.327c-8.645-0.381-15.849-21.682-25.46-12.088l-10.064,10.048
		c-9.531,9.422-16.835-12.098-25.85-11.991c-8.357,0.099-11.637,14.712-20.38,14.327c-8.645-0.381-15.849-21.682-25.46-12.088
		L573.277,13.4c-9.531,9.422-16.835-12.098-25.849-11.991c-8.357,0.099-11.637,14.712-20.381,14.327
		c-8.645-0.381-15.849-21.682-25.46-12.088l-10.062,10.046c-9.531,9.422-16.835-12.098-25.85-11.991
		c-8.356,0.099-11.637,14.712-20.38,14.327c-8.645-0.38-15.849-21.682-25.46-12.088l-10.072,10.042
		c-9.531,9.422-16.835-12.098-25.85-11.991c-8.356,0.099-11.637,14.712-20.38,14.327c-8.645-0.381-15.849-21.682-25.46-12.088
		l-10.061,10.043c-9.531,9.422-16.835-12.098-25.849-11.991c-8.357,0.099-11.637,14.712-20.38,14.327
		c-8.645-0.381-15.85-21.682-25.46-12.088l-10.072,10.041c-9.531,9.422-16.835-12.098-25.85-11.991
		c-8.357,0.099-11.637,14.712-20.38,14.327c-8.645-0.38-15.849-21.682-25.46-12.088L164.5,14.857
		c-9.531,9.422-16.835-12.098-25.849-11.991c-8.357,0.099-11.637,14.712-20.38,14.327c-8.645-0.381-15.849-21.682-25.46-12.088
		L82.739,15.146c-9.531,9.422-16.835-12.098-25.85-11.991c-8.357,0.099-11.637,14.712-20.38,14.327
		C27.864,17.102,20.66-4.199,11.049,5.395L1.018,15.438C1.018,15.438,0.118,19.27,0.012,21.766z"/>
</g>
</svg>
